<?xml version="1.0" standalone="no"?>
<!DOCTYPE svg PUBLIC "-//W3C//DTD SVG 20010904//EN"
 "http://www.w3.org/TR/2001/REC-SVG-20010904/DTD/svg10.dtd">
<svg version="1.0" xmlns="http://www.w3.org/2000/svg"
 width="275.000000pt" height="275.000000pt" viewBox="0 0 275.000000 275.000000"
 preserveAspectRatio="xMidYMid meet">
<metadata>
Created by potrace 1.11, written by Peter Selinger 2001-2013
</metadata>
<g transform="translate(0.000000,275.000000) scale(0.100000,-0.100000)"
fill="#000000" stroke="none">
<path d="M1220 2642 c-85 -41 -200 -96 -255 -122 -55 -27 -181 -87 -280 -135
-99 -47 -232 -111 -295 -141 l-115 -55 -49 -217 c-27 -119 -59 -260 -71 -312
-12 -52 -37 -160 -55 -240 -18 -80 -47 -207 -65 -283 l-32 -137 141 -179 c78
-98 249 -314 381 -480 l240 -301 611 0 610 0 209 263 c115 144 287 359 381
478 l173 215 -10 45 c-6 24 -12 51 -14 59 -7 33 -76 338 -85 375 -9 37 -126
544 -135 590 -3 11 -9 43 -15 71 l-11 51 -142 68 c-302 145 -448 216 -612 295
-134 65 -308 148 -345 165 -3 1 -75 -31 -160 -73z m366 -82 c113 -55 207 -100
209 -100 1 0 112 -53 246 -118 134 -65 277 -133 317 -152 64 -30 73 -38 82
-69 5 -20 38 -164 74 -321 35 -157 90 -397 121 -534 49 -214 56 -253 45 -270
-12 -19 -381 -484 -616 -776 l-100 -125 -587 -2 -586 -2 -173 217 c-300 376
-389 487 -402 503 -7 8 -45 57 -85 107 l-73 93 67 292 c37 161 80 351 96 422
16 72 36 157 43 190 8 33 22 94 31 135 9 41 19 82 21 90 2 8 18 22 36 29 18 8
134 64 258 124 124 59 301 145 395 190 93 45 213 103 265 129 52 26 98 47 102
47 5 1 101 -44 214 -99z"/>
<path d="M1355 2466 c-11 -7 -36 -23 -55 -34 -19 -11 -69 -39 -110 -63 l-75
-44 -154 -5 -154 -5 -72 -125 -73 -124 -130 -76 -131 -75 -1 -152 0 -152 -75
-130 c-41 -72 -75 -134 -75 -138 0 -5 34 -66 75 -136 l75 -128 0 -152 0 -152
129 -73 129 -74 71 -123 c40 -67 77 -127 84 -133 14 -12 89 -14 82 -2 -3 5
-20 7 -39 4 -37 -4 -40 -1 -93 93 -14 26 -39 68 -54 93 -15 24 -26 46 -25 48
2 2 38 -17 81 -42 42 -26 78 -46 80 -46 1 0 60 -33 130 -74 l127 -74 -85 2
c-47 2 -91 0 -97 -4 -6 -4 35 -7 93 -7 l104 -1 134 -77 c118 -68 136 -75 154
-64 11 7 43 25 70 40 28 15 77 43 109 63 33 20 69 36 80 36 10 0 16 3 13 6 -6
6 82 60 248 154 28 15 71 40 98 55 l47 27 -61 -104 c-74 -125 -78 -130 -98
-123 -9 2 -22 1 -30 -4 -9 -6 -2 -9 23 -9 36 0 37 1 111 126 69 119 78 129
132 160 32 18 81 46 108 63 28 16 65 37 83 46 l32 17 0 166 0 165 44 75 c24
41 55 95 68 119 l25 44 -68 120 -69 119 0 166 0 167 -141 80 -141 80 -72 122
-71 122 -140 1 -140 0 -69 40 c-37 22 -70 40 -71 40 -2 0 -33 18 -69 40 -74
45 -74 45 -101 26z m178 -93 c42 -25 77 -47 77 -49 0 -2 -105 -4 -232 -4
l-233 0 120 69 120 70 35 -21 c19 -11 70 -40 113 -65z m-454 -67 c-5 -5 -236
-139 -309 -179 -30 -16 -61 -34 -67 -40 -23 -17 -14 2 50 114 l62 109 134 0
c74 0 132 -2 130 -4z m623 -30 c31 -19 76 -46 100 -59 24 -14 97 -55 162 -93
l120 -69 53 -89 c29 -49 53 -90 53 -92 0 -1 36 -65 80 -141 l80 -138 0 -403
c-1 -369 -2 -403 -18 -413 -207 -124 -247 -143 -209 -101 10 10 17 21 17 24 0
3 45 83 100 178 56 95 99 175 97 177 -3 2 -58 -90 -124 -204 -127 -220 -129
-222 -248 -288 -27 -15 -111 -63 -186 -106 -75 -44 -141 -79 -147 -79 -6 0
-17 -6 -24 -13 -7 -7 -47 -33 -88 -56 -41 -24 -89 -52 -105 -62 l-31 -18 -109
64 c-61 36 -104 65 -97 65 6 0 12 5 12 11 0 6 -9 8 -21 4 -15 -5 -72 23 -217
106 -108 62 -222 128 -252 148 -30 19 -59 36 -65 37 -5 1 -41 20 -78 43 -37
23 -83 49 -102 58 l-35 17 0 125 0 126 38 -60 c21 -33 45 -73 53 -90 35 -68
122 -215 126 -211 5 4 -14 37 -132 241 l-85 147 0 280 0 281 52 91 c69 120 85
147 136 238 24 42 49 82 58 88 8 7 114 70 237 141 l222 128 260 0 260 1 57
-34z m297 -71 c34 -57 61 -107 61 -110 0 -3 -17 6 -37 20 -21 14 -41 25 -46
25 -4 0 -33 16 -63 35 -30 19 -56 35 -59 35 -2 0 -41 22 -87 50 l-83 50 126 0
127 0 61 -105z m348 -445 l3 -145 -29 50 c-15 28 -55 97 -88 155 -33 58 -74
129 -91 158 -18 29 -32 55 -32 57 0 2 53 -26 118 -64 l117 -67 2 -144z m-1716
253 c-5 -10 -48 -85 -95 -167 -47 -82 -86 -151 -86 -155 0 -3 -7 -15 -15 -25
-13 -18 -15 -7 -15 107 l0 126 108 65 c59 35 108 65 110 65 1 1 -2 -7 -7 -16z
m-233 -783 l-3 -122 -68 116 c-78 133 -80 102 14 265 l54 95 3 -117 c1 -64 1
-170 0 -237z m2041 212 c49 -84 56 -102 46 -118 -7 -10 -35 -59 -64 -109 l-51
-90 0 214 c0 118 3 212 6 208 3 -3 32 -50 63 -105z"/>
<path d="M942 1728 l-132 -111 0 -217 0 -216 285 -171 286 -171 284 171 285
171 0 217 0 217 -47 38 c-27 21 -50 41 -53 45 -21 29 -166 137 -175 131 -6 -4
-75 -51 -153 -105 l-141 -97 -135 92 c-75 51 -144 99 -154 106 -16 11 -34 -1
-150 -100z"/>
<path d="M1209 369 c-5 -3 14 -7 42 -8 29 -1 50 2 46 6 -9 9 -75 11 -88 2z"/>
<path d="M1321 371 c-9 -6 -2 -9 23 -9 21 0 35 3 31 6 -10 10 -40 12 -54 3z"/>
<path d="M1400 370 c-12 -8 -9 -9 12 -8 15 1 24 6 22 10 -7 10 -16 10 -34 -2z"/>
<path d="M1450 370 c0 -5 5 -10 10 -10 6 0 10 5 10 10 0 6 -4 10 -10 10 -5 0
-10 -4 -10 -10z"/>
<path d="M1488 369 c-5 -3 16 -6 46 -7 31 0 56 3 56 7 0 9 -87 9 -102 0z"/>
<path d="M1690 370 c0 -5 5 -10 10 -10 6 0 10 5 10 10 0 6 -4 10 -10 10 -5 0
-10 -4 -10 -10z"/>
<path d="M1731 370 c-7 -4 1 -7 19 -8 18 0 29 2 26 6 -10 9 -32 11 -45 2z"/>
<path d="M1801 371 c-9 -6 -2 -9 23 -9 21 0 35 3 31 6 -10 10 -40 12 -54 3z"/>
</g>
</svg>
