<svg version="1" xmlns="http://www.w3.org/2000/svg" width="960" height="960" viewBox="0 0 720.000000 720.000000"><path d="M357.5 1.2c-2.7 1.5-47.4 27.2-83 47.8-15.9 9.3-56.2 32.5-89.5 51.7-33.3 19.3-67.7 39.2-76.5 44.3-8.8 5-25.8 14.8-37.8 21.7L49 179.2v361.6l14.8 8.4c8.1 4.6 28.2 16.3 44.7 25.8 41.4 24 105.6 61.1 179 103.4 34.1 19.7 64.1 37.1 66.8 38.7 2.6 1.6 5.4 2.9 6.2 2.9.8 0 3.6-1.3 6.2-2.9 2.7-1.6 32.7-19 66.8-38.7 34.1-19.6 81.8-47.2 106-61.2 24.2-14 54.6-31.5 67.5-39 12.9-7.4 29.8-17.2 37.5-21.7 7.7-4.5 17-9.8 20.8-11.9l6.7-3.8V179.2l-21.7-12.5c-12-6.9-36-20.7-53.3-30.7-17.3-10-38.7-22.4-47.5-27.5-8.8-5-29-16.7-45-26-15.9-9.2-43.8-25.3-62-35.8-18.1-10.5-43.7-25.3-56.9-32.9C372.5 6.2 361.2 0 360.6 0c-.6 0-2 .6-3.1 1.2zm36 50.3c9.4 5.4 25.3 14.6 35.5 20.5s34.5 19.9 54 31.2 39.8 23 45 26c74.7 43.2 108.3 62.6 111.9 64.7 2.5 1.4 3.9 2.7 3.3 2.9-1.7.5-1.7 325.9-.1 326.4 1.3.4 1.6.2-56.6 33.8-69.9 40.3-81.5 47-94.5 54.6-11.5 6.7-74.3 42.9-112.8 65.1-9 5.2-17 9.7-17.7 10-.8.3-8.3-3.4-16.7-8.3-28-16.1-103.1-59.5-115.8-66.9-13.1-7.6-25.8-14.9-94.5-54.5-58.2-33.6-57.9-33.4-56.6-33.8 1.6-.5 1.6-325.9-.1-326.4-.6-.2.8-1.5 3.3-2.9 3.6-2.1 37.2-21.5 111.9-64.7 5.2-3 25.5-14.7 45-26 46.1-26.6 83.2-48 105-60.7l17.5-10.1 8 4.6c4.4 2.6 15.7 9.1 25 14.5zM77.7 441.2c-.1 44.7-.2 8.2-.2-81.2s.1-125.9.2-81.3c.2 44.7.2 117.9 0 162.5zm566 0c-.1 44.7-.2 8.2-.2-81.2s.1-125.9.2-81.3c.2 44.7.2 117.9 0 162.5z"/><path d="M372.5 244.8c-5.9 2.8-8.4 6.5-9.9 14.7-.5 2.9-2.4 12.2-20 97.5-4.1 20.1-8.9 43.5-10.6 52-1.8 8.5-4.7 22.9-6.6 32-3.9 18.8-4.1 23.2-1.5 28 5.2 9.7 19.5 10.1 25.8.7 1.4-2.2 3.8-11.7 7.7-31.2 3.1-15.4 6.8-33.2 8.1-39.5 1.3-6.3 3.7-18 5.4-26 1.6-8 6-29.1 9.6-47 3.7-17.9 8.2-40.1 10.2-49.4 2.1-10.4 3.3-18.2 3-20.3-.6-3.8-4.6-9.7-7.6-11.3-3.9-2-9.5-2.1-13.6-.2zM257.5 268.9c-1.6 1-21.3 20.3-43.7 42.7-35.1 35.4-40.7 41.4-41.3 44.6-.6 3-.2 7 .8 10.3.5 1.4 83.4 83.4 85.4 84.4 3.5 1.8 10.4 1.3 14.1-.9 6.5-4 9.2-13.3 5.8-19.8-.8-1.5-16.8-18-35.5-36.7l-34.1-34 34.4-34.5c18.9-19 34.9-35.5 35.5-36.7 1.8-3.5 1.3-10.4-.9-14.1-4.2-6.8-14-9.4-20.5-5.3zM448.2 269c-6.2 3.8-9.2 13.2-6.1 19.3.6 1.2 16.6 17.7 35.5 36.7l34.4 34.5-34.1 34c-18.7 18.7-34.7 35.2-35.5 36.7-3.4 6.5-.7 15.8 5.8 19.8 3.7 2.2 10.6 2.7 14.1.9 1.8-.9 85.9-83.9 85-83.9-.1 0 .2-1.2.8-2.8.6-1.5.8-4.7.4-7.2-.6-4.3-2.1-6-41.8-45.8-22.7-22.7-42.4-42-43.9-42.8-3.9-2-10.7-1.8-14.6.6z"/></svg>